<svg width="26" height="29" viewBox="0 0 26 29" fill="none" xmlns="http://www.w3.org/2000/svg">
<path d="M17.5878 4.62902C18.514 3.54953 19.1567 2.06751 19.1567 0.585489C19.1567 0.384227 19.1378 0.164669 19.1 0C17.6067 0.0548896 15.7921 0.969716 14.7147 2.21388C13.8641 3.147 13.0702 4.62902 13.0702 6.12934C13.0702 6.3489 13.108 6.58675 13.1269 6.65994C13.2214 6.67823 13.3726 6.69653 13.5238 6.69653C14.8848 6.69653 16.586 5.8183 17.5878 4.62902ZM18.6464 7.00757C16.3781 7.00757 14.5445 8.34322 13.3726 8.34322C12.125 8.34322 10.4616 7.08076 8.49579 7.08076C4.77203 7.08076 0.972656 10.0814 0.972656 15.6984C0.972656 19.2297 2.39033 22.9256 4.11045 25.3224C5.60373 27.3533 6.908 29 8.76043 29C10.6129 29 11.4446 27.8107 13.7506 27.8107C16.0756 27.8107 16.6049 28.9634 18.6464 28.9634C20.6878 28.9634 22.0299 27.1703 23.2963 25.3956C24.7329 23.3647 25.3378 21.3886 25.3567 21.2789C25.2433 21.2423 21.3494 19.7237 21.3494 15.4057C21.3494 11.6915 24.4116 10.0265 24.5817 9.89842C22.578 7.08076 19.497 7.00757 18.6464 7.00757Z" fill="white"/>
</svg>
